<svg xmlns="http://www.w3.org/2000/svg" version="1.1" xmlns:xlink="http://www.w3.org/1999/xlink" width="1500" height="457" viewBox="0 0 1500 457"><svg xml:space="preserve" width="1500" height="457" data-version="2" data-id="lg_ThCIg0uwbiNzUzIP7D" viewBox="0 0 599 457" x="0" y="0"><rect width="100%" height="100%" fill="transparent"></rect><path fill="#fff" d="M438.165 326.525h18.08v23.32h-18.6q-13.89 0-23.72-5.64-9.82-5.63-17.68-12.57-7.86-6.94-15.07-12.58-7.2-5.63-15.85-5.63l-.26-.26q-18.6-.53-33.8-7.34-15.19-6.81-25.8-18.86-10.61-12.05-16.51-29.08-5.89-17.03-6.16-37.99.27-21.75 6.55-39.3 6.29-17.56 17.56-30 11.26-12.45 26.98-19.13t35.11-6.68q19.13 0 34.98 6.68 15.85 6.68 27.12 19.13 11.26 12.44 17.55 30 6.29 17.55 6.55 39.3-.26 33.79-14.41 56.46-14.15 22.66-39.56 31.83 8.12 6.81 16.63 12.58 8.52 5.76 20.31 5.76m-9.43-106.63q-.26-14.68-4.33-27.78-4.06-13.1-11.79-22.92-7.72-9.83-18.73-15.59-11-5.76-24.89-5.76-13.88 0-24.89 5.76-11 5.76-18.73 15.59-7.73 9.82-11.79 22.92-4.06 13.1-4.32 27.78.26 14.93 4.32 27.77 4.06 12.84 11.79 22.27 7.73 9.43 18.73 14.93 11.01 5.5 24.89 5.5 13.89 0 24.89-5.5 11.01-5.5 18.73-14.93 7.73-9.43 11.79-22.27 4.07-12.84 4.33-27.77"></path><rect width="173.45" height="225.06" x="-86.72" y="-112.53" fill="none" rx="0" ry="0" transform="translate(370.02 237.81)"></rect><path fill="#fff" d="M487.945 185.045h45.33q29.08 0 41.65 8.65 11.27 7.59 14.28 18.2 3.02 10.62 3.02 27.91v71h-23.06v-70.74q0-4.72-.26-7.99-.26-3.28-1.84-8.39-1.57-5.1-4.45-8.38-2.88-3.27-8.38-5.76-5.51-2.49-13.37-2.49h-29.86v103.75h-23.06Z"></path><rect width="104.28" height="125.76" x="-52.14" y="-62.88" fill="none" rx="0" ry="0" transform="translate(540.59 248.43)"></rect><g transform="matrix(1.295 0 0 1.2147 244.38 228.5)"><linearGradient id="a" x1="0" x2="1" y1="0" y2="0" gradientUnits="objectBoundingBox"><stop offset="0%" stop-color="#f00b51"></stop><stop offset="100%" stop-color="#730062"></stop></linearGradient><path fill="url(#a)" d="M368.5 72.04V0H0v368.5h368.5v-72.04h-6v66.04H6V6h356.5v66.04z" transform="translate(-184.25 -184.25)"></path></g><path fill="#f012be" d="M48.295 67.025h7.7v-24.42q0-1.1.08-2.23l-6.4 5.48q-.25.2-.5.28-.25.09-.48.09-.37 0-.67-.16-.3-.16-.45-.39l-1.4-1.92 10.65-9.23h3.62v32.5h7.05v3.4h-19.2Z"></path><rect width="21.32" height="35.9" x="-10.66" y="-17.95" fill="none" rx="0" ry="0" transform="translate(57.34 52.98)"></rect><path fill="#f012be" d="M92.695 57.505h5.43v2.55q0 .4-.24.67-.24.28-.74.28h-4.45v9.42h-3.92v-9.42h-15.88q-.5 0-.86-.29t-.46-.71l-.45-2.28 17.42-23.12h4.15Zm-3.92-14.78q0-.65.03-1.4.04-.75.17-1.55l-13.03 17.73h12.83Z"></path><rect width="27" height="35.82" x="-13.5" y="-17.91" fill="none" rx="0" ry="0" transform="translate(85.13 53.02)"></rect><path fill="#f012be" d="M82.725 385.165v2q0 .85-.19 1.4-.19.55-.39.92l-14.82 29.93q-.33.65-.9 1.11-.58.46-1.55.46h-3.18l15.05-29.55q.33-.62.66-1.15.34-.52.77-1h-18.7q-.43 0-.77-.34-.33-.33-.33-.76v-3.02Z"></path><rect width="24.35" height="35.82" x="-12.18" y="-17.91" fill="none" rx="0" ry="0" transform="translate(71.05 403.57)"></rect></svg></svg>